<svg width="28" height="28" viewBox="0 0 28 28" fill="none" xmlns="http://www.w3.org/2000/svg">
<circle cx="14" cy="14" r="14" fill="#BE141D"/>
<path d="M10.7917 7.875H17.2083C17.2989 7.875 17.3882 7.8969 17.4692 7.93895C17.5502 7.98101 17.6207 8.04207 17.675 8.11731L19.25 10.2981V19.3846C19.25 19.5453 19.1885 19.6994 19.0791 19.813C18.9697 19.9266 18.8214 19.9904 18.6667 19.9904H9.33333C9.17862 19.9904 9.03025 19.9266 8.92085 19.813C8.81146 19.6994 8.75 19.5453 8.75 19.3846V10.2981L10.325 8.11731C10.3793 8.04207 10.4498 7.98101 10.5308 7.93895C10.6118 7.8969 10.7011 7.875 10.7917 7.875ZM18.0833 11.5096H9.91667V18.7788H18.0833V11.5096ZM17.7917 10.2981L16.9167 9.08654H11.0833L10.2083 10.2981H17.7917Z" fill="white"/>
</svg>
