<svg width="20" height="20" viewBox="0 0 20 20" fill="none" xmlns="http://www.w3.org/2000/svg">
<path d="M10 4C11.93 4 13.5 5.57 13.5 7.5C13.5 9.43 11.93 11 10 11C8.07001 11 6.49999 9.43 6.49999 7.5C6.49999 5.57 8.07001 4 10 4Z" fill="#BC1F26"/>
<path fill-rule="evenodd" clip-rule="evenodd" d="M10 20C15.5228 20 20 15.5228 20 10C20 4.47715 15.5228 0 10 0C4.47715 0 0 4.47715 0 10C0 15.5228 4.47715 20 10 20ZM17.8723 10C17.8723 11.9197 17.1852 13.679 16.0434 15.0452C14.3092 13.7186 12.1856 12.9988 10 12.9988C7.81437 12.9988 5.69076 13.7186 3.95658 15.0452C2.81482 13.679 2.12766 11.9197 2.12766 10C2.12766 5.65223 5.65222 2.12766 10 2.12766C14.3478 2.12766 17.8723 5.65223 17.8723 10Z" fill="#BC1F26"/>
</svg>
