<svg width="20" height="20" viewBox="0 0 20 20" fill="none" xmlns="http://www.w3.org/2000/svg">
<path d="M18.6667 10C18.6667 5.21353 14.7865 1.33333 10 1.33333C5.21353 1.33333 1.33333 5.21353 1.33333 10C1.33333 14.7865 5.21353 18.6667 10 18.6667V20C4.47715 20 0 15.5228 0 10C0 4.47715 4.47715 0 10 0C15.5228 0 20 4.47715 20 10C20 15.5228 15.5228 20 10 20V18.6667C14.7865 18.6667 18.6667 14.7865 18.6667 10Z" fill="#BE141D"/>
<path d="M8.78095 4.66667H11.2317L10.8381 11.1667H9.16191L8.78095 4.66667ZM10 14.6667C9.60212 14.6667 9.28042 14.5482 9.03492 14.3114C8.78942 14.0658 8.66667 13.75 8.66667 13.364C8.66667 12.9781 8.78942 12.6667 9.03492 12.4298C9.28042 12.193 9.60212 12.0746 10 12.0746C10.3979 12.0746 10.7196 12.193 10.9651 12.4298C11.2106 12.6667 11.3333 12.9781 11.3333 13.364C11.3333 13.75 11.2106 14.0658 10.9651 14.3114C10.7196 14.5482 10.3979 14.6667 10 14.6667Z" fill="#BE141D"/>
</svg>
